<svg xmlns="http://www.w3.org/2000/svg" width="124.045" height="17.332" viewBox="0 0 124.045 17.332"><defs><style>.a{fill:#f64b53;}</style></defs><g transform="translate(-79 -77.993)"><path class="a" d="M188.453,79.37h3.23V93.324h7.279l-2,2.916h-8.5Z" transform="translate(-88.299 -1.111)"/><path class="a" d="M666.481,79.032l3.229.04-.175,13.954,7.278.091-2.041,2.891-8.5-.107Z" transform="translate(-473.768 -0.838)"/><path class="a" d="M279.614,79.37h3.23V96.241h-3.23Z" transform="translate(-161.842 -1.111)"/><path class="a" d="M353.23,79.37h3.133V96.241H353.3l-8.676-11.617V96.241h-3.157V79.37h3.061l8.7,11.641Z" transform="translate(-211.741 -1.111)"/><path class="a" d="M446.344,79.37h16.568l-2,2.868h-4.586v14h-3.253v-14h-4.72Z" transform="translate(-296.348 -1.111)"/><path class="a" d="M560.7,79.37h12.653l-2,2.82h-7.42v4.17h9.423l-2,2.82h-7.419v4.242h9.423l-2,2.82H560.7Z" transform="translate(-388.602 -1.111)"/><path class="a" d="M91.744,87.683a5.006,5.006,0,0,0-1.868-1.495,21.221,21.221,0,0,0-2.808-1.012,18.872,18.872,0,0,1-1.94-.663,3.675,3.675,0,0,1-1.18-.772,1.586,1.586,0,0,1-.47-1.169,1.359,1.359,0,0,1,.675-1.205,3.752,3.752,0,0,1,1.965-.427h5.112l2-2.947H86.117a7.831,7.831,0,0,0-3.181.6,5.048,5.048,0,0,0-2.218,1.7,4.3,4.3,0,0,0-.784,2.567,4.023,4.023,0,0,0,.771,2.567,4.85,4.85,0,0,0,1.856,1.458,23.235,23.235,0,0,0,2.8.989q1.252.362,1.976.651a3.5,3.5,0,0,1,1.193.759,1.706,1.706,0,0,1-.3,2.6,4.12,4.12,0,0,1-2.109.487H81l-2,2.947h7.116a8.536,8.536,0,0,0,3.277-.6,5.2,5.2,0,0,0,2.29-1.748,4.447,4.447,0,0,0,.831-2.686A4.112,4.112,0,0,0,91.744,87.683Z"/></g></svg>